<svg xmlns="http://www.w3.org/2000/svg" xmlns:xlink="http://www.w3.org/1999/xlink" version="1.1" x="0px" y="0px" viewBox="0 0 1000 1250" style="enable-background:new 0 0 1000 1000;" xml:space="preserve"><path d="M823.4,307.6c0,0-39.7,66.2-57.4,72.8c-17.6,6.6-17.6,6.6-17.6,6.6s3.7-88.2-33.8-156.6s-99-85.3-214.6-85.3  S322.9,162,285.4,230.4S251.6,387,251.6,387s0,0-17.6-6.6c-17.6-6.6-57.4-72.8-57.4-72.8s4.4,83.8,13.2,112.5  c8.8,28.7,52.9,72.8,50.7,123.5c-2.2,50.7-13.2,64-13.2,64C225.1,870.1,500,854.7,500,854.7s274.9,15.4,272.7-247.1  c0,0-11-13.2-13.2-64c-2.2-50.7,41.9-94.9,50.7-123.5C819,391.5,823.4,307.6,823.4,307.6z M310.1,642.1c0,0-24-42-16.5-93  c7.5-51,16.5-64.5,16.5-64.5s43.5,111,54,126C374.6,625.6,340.1,651.1,310.1,642.1z M361.1,476.6c-22.5-1.5-16.5-43.5-27-54.7  c-10.5-11.2-40.5-20.3-40.5-20.3s27,0,46.5,10.5c19.5,10.5,79.5,31.5,87,30c7.5-1.5,16.5-7.5,16.5-7.5  C430.1,506.6,383.6,478.1,361.1,476.6z M490.1,572.6h-34.5c0,0-10.5-9,0-15s18-1.1,22.5-13.3c4.5-12.2,12-22.7,12-22.7V572.6z   M539.4,572.6h-34.5v-51c0,0,7.5,10.5,12,22.7c4.5,12.2,12,7.3,22.5,13.3C549.9,563.6,539.4,572.6,539.4,572.6z M550.6,434.6  c0,0,9,6,16.5,7.5c7.5,1.5,67.5-19.5,87-30c19.5-10.5,46.5-10.5,46.5-10.5s-30,9.1-40.5,20.3c-10.5,11.2-4.5,53.2-27,54.7  C610.6,478.1,564.1,506.6,550.6,434.6z M688.6,642.1c-30,9-64.5-16.5-54-31.5c10.5-15,54-126,54-126s9,13.5,16.5,64.5  C712.6,600.1,688.6,642.1,688.6,642.1z"/><text x="0" y="1015" fill="#000000" font-size="5px" font-weight="bold" font-family="'Helvetica Neue', Helvetica, Arial-Unicode, Arial, Sans-serif">Created by Darren Northcott</text><text x="0" y="1020" fill="#000000" font-size="5px" font-weight="bold" font-family="'Helvetica Neue', Helvetica, Arial-Unicode, Arial, Sans-serif">from the Noun Project</text></svg>