<svg xmlns="http://www.w3.org/2000/svg" xmlns:xlink="http://www.w3.org/1999/xlink" version="1.1" x="0px" y="0px" viewBox="0 0 100 125" enable-background="new 0 0 100 100" xml:space="preserve"><path d="M90.453,10.661l0.219-0.219c-0.073-0.004-0.147,0-0.221-0.002c-0.004-0.074,0.001-0.148-0.003-0.222l-0.22,0.22  c-6.02-0.158-12.546,3.462-14.229,4.466l-0.083-0.083L36.408,54.329l5.077,5.077l-6.508-6.508c-1.502-1.502-3.938-1.502-5.441,0  c-1.503,1.504-1.503,3.939,0,5.442l3.422,3.422L21,73.722c-1.723-0.378-3.594,0.093-4.934,1.433c-2.09,2.091-2.09,5.48,0,7.571  l2.324,2.322c2.09,2.091,5.48,2.091,7.57,0.001c1.34-1.34,1.811-3.211,1.434-4.934l11.958-11.958l3.42,3.421  c1.504,1.504,3.941,1.504,5.443,0.002c1.503-1.504,1.503-3.939,0-5.443l-1.654-1.653l39.168-39.169v0l0.001-0.001l0.34-0.34  l-0.082-0.083C86.991,23.207,90.61,16.681,90.453,10.661z"/><text x="0" y="115" fill="#000000" font-size="5px" font-weight="bold" font-family="'Helvetica Neue', Helvetica, Arial-Unicode, Arial, Sans-serif">Created by Darren Northcott</text><text x="0" y="120" fill="#000000" font-size="5px" font-weight="bold" font-family="'Helvetica Neue', Helvetica, Arial-Unicode, Arial, Sans-serif">from the Noun Project</text></svg>