<svg xmlns="http://www.w3.org/2000/svg" xmlns:xlink="http://www.w3.org/1999/xlink" version="1.1" x="0px" y="0px" viewBox="0 0 90 112.5"
    enable-background="new 0 0 90 90" xml:space="preserve">
    <g>
        <g>
            <path d="M42.511,36.175c1.136-2.413-0.385-5.507-1.122-8.07c-0.839-2.925-2.07-5.918-2.112-8.52    c-0.093-6.101,4.474-12.012,10.037-13.368c6.115-1.49,8.346,4.056,13.271,5.415c2.282,0.628,5.097,0.417,6.783,1.28    c9.524,4.879,3.491,17.297-3.333,20.983c-2.091,1.127-4.346,2.306-6.688,3.34c-1.96,0.863-4.957,1.232-6.026,3.638    c1.709,1.292,4.672-0.662,7.08-1.569c2.611-0.984,5.135-2.179,7.438-2.802c7.185-1.937,19.616,2.521,16.941,12.253    c-0.741,2.699-3.236,4.095-4.042,6.727c-0.575,1.883,0.01,3.863-0.351,5.614c-1.102,5.295-8.005,8.86-13.767,7.1    c-4.887-1.493-8.117-5.492-11.448-10.757c-0.891-1.41-1.552-3.633-3.487-4.168c-0.904,2.684,1.476,7.039,2.715,9.391    c3.362,6.377,8.687,11.789,13.523,14.086c-1.472,1.192-4.369,1.737-6.39,2.68c-6.423-4.402-10.425-15.049-13.928-24.619    c-2.087,1.035-0.649,4.535-0.322,6.422c1.354,7.755,0.735,17.768-8.313,20.117c-5.994,1.558-7.738-2.363-11.803-5.145    c-2.9-1.984-8.366-1.461-10.692-5.837c-3.427-6.456,1.349-14.288,7.211-17.238c2.206-1.11,4.979-1.874,7.439-2.8    c2.08-0.783,4.749-1.105,6.208-3.16c-2.151-1.678-4.917,0.338-6.781,0.91c-7.456,2.291-13.638,3.381-18.907-0.006    C8.337,45.942,5.5,40.649,7.218,36.314c0.825-2.079,2.844-3.621,4.015-5.346c3.27-4.819,0.846-11.628,9.285-13.908    c4.625-1.251,10.803,1.007,13.721,4.422C37.764,25.612,38.434,32.375,42.511,36.175z"
            />
        </g>
    </g>
</svg>