<svg xmlns="http://www.w3.org/2000/svg" xmlns:xlink="http://www.w3.org/1999/xlink" version="1.1" x="0px" y="0px" viewBox="0 0 100 125"
    enable-background="new 0 0 100 100" xml:space="preserve">
    <polygon points="15.44,62.761 26.5,48.772 5,48.834 " />
    <path d="M50,10.792C28.38,10.792,10.792,28.38,10.792,50c0,2.518,0.248,4.978,0.704,7.365l8.737-2.725  c-0.235-1.514-0.358-3.062-0.358-4.641c0-16.611,13.514-30.125,30.125-30.125S80.126,33.389,80.126,50S66.611,80.126,50,80.126  c-10.724,0-20.149-5.637-25.489-14.098l-7.44,5.214C24.061,82.041,36.205,89.208,50,89.208c21.62,0,39.208-17.588,39.208-39.208  C89.208,28.38,71.62,10.792,50,10.792z"
    />
    <path d="M53.125,51.087c0,1.471-1.399,2.663-3.125,2.663l0,0c-1.726,0-3.125-1.192-3.125-2.663V31.913  c0-1.471,1.399-2.663,3.125-2.663l0,0c1.726,0,3.125,1.192,3.125,2.663V51.087z"
    />
    <path d="M50.063,53.75c-1.393,0-2.522-1.398-2.522-3.125l0,0c0-1.726,1.13-3.125,2.522-3.125h18.164  c1.393,0,2.522,1.399,2.522,3.125l0,0c0,1.726-1.13,3.125-2.522,3.125H50.063z"
    />
    <rect x="34.039" y="33.625" transform="matrix(0.7071 -0.7071 0.7071 0.7071 -15.6337 36.132)" width="3.519" height="6.625"
    />
    <rect x="62.407" y="33.625" transform="matrix(0.7071 0.7071 -0.7071 0.7071 44.9127 -34.5538)" width="3.519" height="6.625"
    />
    <rect x="28.148" y="48.241" width="6.625" height="3.519" />
    <rect x="35.014" y="60.275" transform="matrix(-0.707 -0.7072 0.7072 -0.707 17.8057 134.5512)" width="3.519" height="6.625"
    />
    <rect x="61.406" y="60.275" transform="matrix(-0.7071 0.7071 -0.7071 -0.7071 152.7934 63.8857)" width="3.519" height="6.625"
    />
    <rect x="48.24" y="65.025" width="3.519" height="6.625" />
    <text x="0" y="115" fill="#000000" font-size="5px" font-weight="bold" font-family="'Helvetica Neue', Helvetica, Arial-Unicode, Arial, Sans-serif">Created by Darren Northcott</text>
    <text x="0" y="120" fill="#000000" font-size="5px" font-weight="bold" font-family="'Helvetica Neue', Helvetica, Arial-Unicode, Arial, Sans-serif">from the Noun Project</text>
</svg>