<svg xmlns="http://www.w3.org/2000/svg" xmlns:xlink="http://www.w3.org/1999/xlink" version="1.1" x="0px" y="0px" viewBox="0 0 100 125"
    enable-background="new 0 0 100 100" xml:space="preserve">
    <path d="M79.791,12.871c0.146-1.681,0.246-3.389,0.296-5.118H19.912c0.051,1.729,0.151,3.437,0.297,5.118H7.45  c0,17.943,10.448,32.49,23.337,32.49v-0.23c2.834,4.054,6.107,7.227,9.676,9.28h-0.434v4.086h3.826v5.059h-1.635v5.071h-1.536v5.312  h-7.531v18.308h33.693V73.939h-7.53v-5.312H57.78v-5.071h-1.636v-5.059h3.827v-4.086h-0.434c3.57-2.053,6.841-5.227,9.676-9.28v0.23  c12.889,0,23.337-14.546,23.337-32.49H79.791z M12.165,16.152h8.393v0c1.249,9.951,4.15,18.841,8.184,25.77  C19.419,40.502,12.165,29.508,12.165,16.152z M71.259,41.922c4.033-6.929,6.935-15.819,8.183-25.77v0h8.394  C87.836,29.508,80.581,40.502,71.259,41.922z"
    />
</svg>